<?xml version="1.0" encoding="utf-8"?>
<!-- Generator: Adobe Illustrator 15.0.2, SVG Export Plug-In . SVG Version: 6.00 Build 0)  -->
<!DOCTYPE svg PUBLIC "-//W3C//DTD SVG 1.1//EN" "http://www.w3.org/Graphics/SVG/1.1/DTD/svg11.dtd">
<svg version="1.1" id="Layer_1" xmlns="http://www.w3.org/2000/svg" xmlns:xlink="http://www.w3.org/1999/xlink" x="0px" y="0px"
	 width="512px" height="553.514px" viewBox="0 0 512 553.514" enable-background="new 0 0 512 553.514" xml:space="preserve">
<path d="M152.216,207.567v235.243h41.514V207.567H152.216z M235.243,207.567v235.243h41.514V207.567H235.243z M318.271,207.567
	v235.243h41.514V207.567H318.271z M359.784,41.514C359.784,6.919,351.352,0,318.271,0H179.892c-34.871,0-41.236,7.608-41.236,41.648
	l-0.277,41.379H27.676C7.196,83.027,0,89.811,0,110.703v13.838c0,21.445,7.196,27.675,27.676,27.675h13.838V512
	c0,34.46,7.608,41.514,41.514,41.514h332.107c34.595,0,55.352-6.514,55.352-41.514V152.216h13.838
	c20.892,0,27.676-6.642,27.676-27.675v-13.838c0-20.48-5.946-27.676-27.676-27.676h-124.54V41.514z M318.271,41.514v41.514H179.892
	V41.514H318.271z M110.703,152.216h290.594v332.108H110.703V152.216z"/>
</svg>
